<?xml version="1.0" encoding="iso-8859-1"?>
<!-- Generator: Adobe Illustrator 16.0.0, SVG Export Plug-In . SVG Version: 6.00 Build 0)  -->
<!DOCTYPE svg PUBLIC "-//W3C//DTD SVG 1.1//EN" "http://www.w3.org/Graphics/SVG/1.1/DTD/svg11.dtd">
<svg version="1.1" id="Capa_1" xmlns="http://www.w3.org/2000/svg" xmlns:xlink="http://www.w3.org/1999/xlink" x="0px" y="0px"
	 width="357.657px" height="357.657px" viewBox="0 0 357.657 357.657" style="enable-background:new 0 0 357.657 357.657;"
	 xml:space="preserve">
<g>
	<g>
		<g>
			<g>
				<path d="M205.55,303.782c-1.237-1.255-3.086-1.688-4.744-1.104c-10.809,3.675-24.844,5.608-40.604,5.608
					c-44.292,0-92.092-15.349-92.092-40.172c0-1.88-1.126-3.543-2.85-4.258c-1.72-0.709-3.708-0.318-5.017,0.997
					c-26.733,26.733-20.482,86.181-20.197,88.708c0.252,2.336,2.23,4.096,4.579,4.096h190.691c0.036,0,0.078,0,0.114,0
					c2.546,0,4.611-2.071,4.611-4.611c0-0.829-0.228-1.634-0.624-2.312C237.922,346.183,230.986,329.243,205.55,303.782z"/>
			</g>
		</g>
		<g>
			<g>
				<path d="M254.525,118.396c-1.874,0.621-3.146,2.381-3.146,4.365c0,0.339,0.036,0.685,0.071,0.685
					c0,7.035-2.174,13.853-6.232,19.72c-1.057,1.537-1.117,3.546-0.103,5.116c22.32,34.812,25.166,66.076,7.608,83.635
					c-5.945,5.945-14.676,8.953-25.953,8.953c-29.699,0-68.268-20.11-100.652-52.464C80.836,143.091,60.507,83.938,82.596,61.822
					c5.938-5.942,14.682-8.953,25.965-8.953c25.68,0,48.387,8.824,73.622,28.604c1.495,1.18,3.516,1.309,5.148,0.369
					c5.477-3.149,11.241-4.74,17.15-4.74c0.684,0,1.362,0.104,2.041,0.195l1.55,0.186c0.149,0.019,0.3,0.019,0.444,0.019
					c0.06,0,0.084,0,0.084,0c2.582,0,4.647-2.06,4.647-4.612c0-1.684-0.9-3.167-2.252-3.966
					c-33.228-29.294-67.692-44.15-102.427-44.15c-15.693,0-31.834,5.978-45.829,17.168c-7.194,7.203-12.193,16.387-14.892,27.315
					c-15.166,24.467-23.176,52.824-23.176,82.067c0,81.242,60.552,147.331,134.979,147.331c30.417,0,59.12-10.845,83.127-31.388
					c12.01-2.504,22.032-7.709,29.832-15.498c30.138-30.15,25.202-80.644-12.935-131.772
					C258.5,118.414,256.435,117.784,254.525,118.396z"/>
			</g>
		</g>
		<g>
			<g>
				<path d="M130.274,134.267c-2.664,0-4.834-2.165-4.834-4.828c0-2.66,2.177-4.825,4.834-4.825h49.515
					c2.559,0,4.627-2.06,4.627-4.611c0-13.511,10.992-24.503,24.503-24.503c13.504,0,24.481,10.998,24.481,24.503
					c0,13.501-10.978,24.502-24.481,24.502c-2.547,0-4.612,2.06-4.612,4.612v50.313c0,2.66-2.18,4.816-4.834,4.816
					c-2.653,0-4.833-2.162-4.833-4.816v-57.42c0-1.342-0.559-2.597-1.574-3.474c-0.954-0.837-1.831-1.705-2.66-2.663
					c-0.864-1.033-2.149-1.612-3.5-1.612h-56.631V134.267z"/>
			</g>
		</g>
		<g>
			<g>
				<path d="M277.487,109.284h6.148c0-33.044-26.889-59.946-59.928-59.946v6.149C253.36,55.481,277.487,79.617,277.487,109.284z"/>
			</g>
		</g>
		<g>
			<g>
				<path d="M223.876,0v6.155c56.782,0,102.965,46.192,102.965,102.97h6.143C332.983,48.951,284.026,0,223.876,0z"/>
			</g>
		</g>
	</g>
</g>
<g>
</g>
<g>
</g>
<g>
</g>
<g>
</g>
<g>
</g>
<g>
</g>
<g>
</g>
<g>
</g>
<g>
</g>
<g>
</g>
<g>
</g>
<g>
</g>
<g>
</g>
<g>
</g>
<g>
</g>
</svg>
